<?xml version="1.0" encoding="UTF-8" standalone="no"?>
<!DOCTYPE svg PUBLIC "-//W3C//DTD SVG 1.1//EN" "http://www.w3.org/Graphics/SVG/1.1/DTD/svg11.dtd">
<svg width="100%" height="100%" viewBox="0 0 600 400" version="1.1" xmlns="http://www.w3.org/2000/svg" xmlns:xlink="http://www.w3.org/1999/xlink" xml:space="preserve" xmlns:serif="http://www.serif.com/" style="fill-rule:evenodd;clip-rule:evenodd;stroke-linejoin:round;stroke-miterlimit:2;">
    <g id="Layer1">
        <rect x="-1028.23" y="-248.288" width="1712.17" height="4055.19" style="fill:#3d4345;"/>
        <rect x="-13.101" y="-13.059" width="626.202" height="426.201" style="fill:url(#_Radial1);"/>
        <g id="CorelEMF" serif:id="CorelEMF">
        </g>
        <g id="CorelEMF1" serif:id="CorelEMF">
        </g>
        <g>
            <g id="CorelEMF2" serif:id="CorelEMF">
            </g>
        </g>
        <g id="CorelEMF3" serif:id="CorelEMF">
        </g>
        <g id="CorelEMF4" serif:id="CorelEMF">
        </g>
        <g>
            <path d="M405.665,236.405L405.665,256.405L358.344,209.084L405.665,236.405ZM241.404,209.229L194.335,256.298L194.335,236.405L241.404,209.229ZM194.335,203.32L252.212,187.812C252.928,189.921 253.78,191.969 254.757,193.943L194.335,228.827L194.335,203.32ZM405.665,203.32L405.665,228.827L345.243,193.943C346.22,191.97 347.072,189.922 347.788,187.812L405.665,203.32ZM194.335,174.892L249.655,174.892C249.799,177.128 250.089,179.325 250.516,181.473L194.335,196.527L194.335,174.892ZM405.665,174.892L405.665,196.527L349.484,181.473C349.911,179.326 350.201,177.129 350.345,174.892L405.665,174.892ZM405.665,168.33L350.345,168.33C350.201,166.093 349.911,163.896 349.484,161.748L405.665,146.695L405.665,168.33ZM194.335,146.695L250.516,161.748C250.089,163.895 249.799,166.093 249.655,168.33L194.335,168.33L194.335,146.695ZM405.665,139.036L405.665,139.901L347.788,155.409C347.072,153.3 346.22,151.253 345.243,149.278L384.324,126.715L405.665,139.036ZM215.676,126.715L254.757,149.278C253.78,151.251 252.928,153.299 252.212,155.409L194.335,139.901L194.335,139.036L215.676,126.715ZM362.269,113.981L377.762,122.926L341.955,143.599C340.722,141.757 339.37,140 337.911,138.339L362.269,113.981ZM237.731,113.981L262.089,138.339C260.629,140 259.278,141.757 258.045,143.599L222.238,122.926L237.731,113.981ZM343.363,103.066L356.386,110.585L333.271,133.699C331.61,132.24 329.853,130.889 328.011,129.656L343.363,103.066ZM256.637,103.066L271.989,129.656C270.146,130.889 268.389,132.24 266.729,133.699L243.614,110.585L256.637,103.066ZM324.657,92.266L337.68,99.785L322.332,126.368C320.359,125.391 318.312,124.539 316.201,123.823L324.657,92.266ZM275.343,92.266L283.799,123.823C281.689,124.539 279.642,125.39 277.668,126.368L262.32,99.785L275.343,92.266ZM303.281,79.925L318.774,88.869L309.863,122.126C307.716,121.7 305.518,121.41 303.281,121.266L303.281,79.925ZM296.719,79.925L296.719,121.266C294.483,121.41 292.286,121.7 290.137,122.126L281.226,88.869L296.719,79.925Z" style="fill:#64d4ff;"/>
            <path d="M194.335,256.298L191.424,261.013L194.335,264.702L257.494,306.786L300,327.754L409.929,267.342L405.665,256.405L337.496,188.236L331.336,194.396L303.926,166.986L283.813,187.099L273.674,176.96L194.335,256.298ZM199.25,263.884L300,322.052L337.44,300.436L337.496,200.736L304.102,234.13L303.926,179.486L273.707,209.705L273.674,189.46L199.25,263.884Z" style="fill:#00469b;"/>
            <path d="M300,65.833L416.227,132.937L416.227,267.145L300,334.249L183.773,267.145L183.773,132.937L300,65.833ZM300,78.03L405.665,139.036L405.665,261.047L300,322.052L194.335,261.047L194.335,139.036L300,78.03Z" style="fill:#00469b;"/>
        </g>
    </g>
    <defs>
        <radialGradient id="_Radial1" cx="0" cy="0" r="1" gradientUnits="userSpaceOnUse" gradientTransform="matrix(2.19595e-14,-366.128,358.626,2.24189e-14,300,200.041)"><stop offset="0" style="stop-color:#fff;stop-opacity:1"/><stop offset="1" style="stop-color:#eee;stop-opacity:1"/></radialGradient>
    </defs>
</svg>
